<svg width="42" height="41" viewBox="0 0 42 41" fill="none" xmlns="http://www.w3.org/2000/svg">
<g id="ant-design:linkedin-filled">
<path id="Vector" d="M35.6981 4.48961H6.23899C5.53053 4.48961 4.95816 5.06198 4.95816 5.77044V35.2296C4.95816 35.938 5.53053 36.5104 6.23899 36.5104H35.6981C36.4066 36.5104 36.9789 35.938 36.9789 35.2296V5.77044C36.9789 5.06198 36.4066 4.48961 35.6981 4.48961ZM14.4563 31.7753H9.70524V16.4934H14.4563V31.7753ZM12.0828 14.404C11.5381 14.404 11.0057 14.2425 10.5529 13.9399C10.1 13.6374 9.74704 13.2073 9.53862 12.7041C9.33019 12.2009 9.27565 11.6472 9.38191 11.113C9.48817 10.5788 9.75044 10.0882 10.1356 9.70303C10.5207 9.31791 11.0114 9.05564 11.5455 8.94938C12.0797 8.84313 12.6334 8.89766 13.1366 9.10609C13.6398 9.31452 14.0699 9.66748 14.3725 10.1203C14.6751 10.5732 14.8366 11.1056 14.8366 11.6503C14.8326 13.1712 13.5998 14.404 12.0828 14.404ZM32.2439 31.7753H27.4968V24.3425C27.4968 22.5693 27.4648 20.2919 25.0272 20.2919C22.5576 20.2919 22.1773 22.2211 22.1773 24.2144V31.7753H17.4343V16.4934H21.9892V18.5828H22.0533C22.6857 17.382 24.2347 16.1132 26.5482 16.1132C31.3593 16.1132 32.2439 19.2792 32.2439 23.3939V31.7753Z" fill="white"/>
</g>
</svg>
