<svg width="42" height="41" viewBox="0 0 42 41" fill="none" xmlns="http://www.w3.org/2000/svg">
<g id="ant-design:facebook-filled">
<path id="Vector" d="M35.7103 4.48961H6.2512C5.54274 4.48961 4.97037 5.06198 4.97037 5.77044V35.2296C4.97037 35.938 5.54274 36.5104 6.2512 36.5104H35.7103C36.4188 36.5104 36.9911 35.938 36.9911 35.2296V5.77044C36.9911 5.06198 36.4188 4.48961 35.7103 4.48961ZM32.0119 13.8357H29.4543C27.449 13.8357 27.0607 14.7883 27.0607 16.1892V19.2752H31.8478L31.2234 24.1063H27.0607V36.5104H22.0695V24.1103H17.8948V19.2752H22.0695V15.7129C22.0695 11.5782 24.5951 9.32475 28.2855 9.32475C30.0546 9.32475 31.5716 9.45683 32.0159 9.51687V13.8357H32.0119Z" fill="white"/>
</g>
</svg>
