<svg width="42" height="41" viewBox="0 0 42 41" fill="none" xmlns="http://www.w3.org/2000/svg">
<g id="ant-design:twitter-outlined">
<path id="Vector" d="M37.6449 10.1853C36.4201 10.7137 35.0873 11.0939 33.7144 11.242C35.1398 10.3952 36.2072 9.05741 36.7163 7.47958C35.3788 8.27526 33.9135 8.8332 32.3855 9.12865C31.7469 8.44592 30.9745 7.90202 30.1165 7.53085C29.2584 7.15968 28.3332 6.96919 27.3983 6.97125C23.6158 6.97125 20.5739 10.0372 20.5739 13.7997C20.5739 14.328 20.6379 14.8564 20.742 15.3647C15.0783 15.0685 10.027 12.3628 6.66884 8.22006C6.05694 9.2652 5.73629 10.4552 5.74023 11.6663C5.74023 14.0358 6.94502 16.1252 8.78221 17.354C7.69952 17.3114 6.64219 17.0138 5.69621 16.4854V16.5695C5.69621 19.8876 8.04173 22.6374 11.1678 23.2698C10.5808 23.4223 9.97701 23.5003 9.37059 23.502C8.9263 23.502 8.50603 23.458 8.08175 23.3979C8.94631 26.1037 11.4639 28.0689 14.4619 28.133C12.1164 29.9702 9.17846 31.0509 5.98839 31.0509C5.41602 31.0509 4.88768 31.0309 4.33932 30.9668C7.36529 32.9081 10.9556 34.0288 14.8221 34.0288C27.3743 34.0288 34.2427 23.6301 34.2427 14.6042C34.2427 14.308 34.2427 14.0118 34.2227 13.7156C35.5516 12.743 36.7163 11.5382 37.6449 10.1853Z" fill="white"/>
</g>
</svg>
